 <svg
            xmlns="http://www.w3.org/2000/svg"
            viewBox="0 0 240 240"
            className="sidebar__logo"
          >
            <path
              className="fill__color"
              d="M20 80 C60 20, 180 40, 220 80 
            Q200 120, 150 100 
            Q100 80, 20 110 Z"
            />

            <path
              className="fill__color"
              d="M120 90 
            C110 120, 145 160, 145 200 
            Q145 240, 105 235 
            Q85 210, 90 160 
            C90 130, 115 110, 120 90 Z"
            />

            <path
              d="M20 80 C60 20, 180 40, 220 80 
            Q200 120, 150 100 
            Q100 80, 20 110 
            M120 90 
            C110 120, 145 160, 145 200 
            Q145 240, 105 235 
            Q85 210, 90 160 
            C90 130, 115 110, 120 90"
              stroke="black"
              stroke-width="5"
              fill="none"
            />
          </svg>
