<svg xmlns="http://www.w3.org/2000/svg" version="1.1" viewBox="1.1532845497131348 2.0193347930908203 483.2459411621094 424.0916748046875" width="486.00" height="428.00">
<g stroke-width="2.00" fill="none" stroke-linecap="butt">
<path stroke="#1d3a44" d="&#10;  M 72.73 75.02&#10;  Q 59.95 74.61 47.23 77.49"/>
<path stroke="#213f49" d="&#10;  M 42.21 126.10&#10;  Q 35.13 120.83 30.27 113.31&#10;  Q 30.00 112.88 29.50 112.96&#10;  Q 19.03 114.68 8.88 118.58"/>
<path stroke="#213f49" d="&#10;  M 478.83 112.58&#10;  Q 464.81 110.08 451.71 115.99"/>
<path stroke="#1d3a44" d="&#10;  M 183.47 90.74&#10;  Q 172.67 86.85 160.72 86.99&#10;  C 154.72 87.06 150.90 90.97 145.42 92.58&#10;  Q 139.97 94.18 134.20 94.30"/>
<path stroke="#3e5f69" d="&#10;  M 276.96 282.58&#10;  Q 266.19 276.63 254.23 277.76"/>
<path stroke="#1d3a44" d="&#10;  M 438.26 86.88&#10;  Q 427.75 79.62 414.99 79.12"/>
<path stroke="#213f49" d="&#10;  M 204.06 134.44&#10;  Q 198.62 130.87 191.76 131.38&#10;  Q 176.88 132.48 161.97 134.64"/>
<path stroke="#34545d" d="&#10;  M 230.81 252.80&#10;  Q 220.03 247.53 208.22 246.76"/>
<path stroke="#486972" d="&#10;  M 230.70 324.95&#10;  Q 220.20 319.97 208.74 317.84&#10;  Q 208.24 317.75 208.23 318.25&#10;  L 208.10 325.04"/>
<path stroke="#213f49" d="&#10;  M 323.07 236.06&#10;  L 323.14 236.96"/>
<path stroke="#385862" d="&#10;  M 323.13 279.36&#10;  C 316.02 275.14 308.09 275.60 300.04 275.30"/>
<path stroke="#4d6e77" d="&#10;  M 323.02 337.31&#10;  Q 312.68 328.81 300.06 324.37"/>
<path stroke="#4d6e77" d="&#10;  M 184.53 311.30&#10;  L 162.27 312.70&#10;  Q 161.77 312.73 161.72 312.23&#10;  L 161.57 310.78"/>
</g>
<path fill="#142f39" d="&#10;  M 72.73 75.02&#10;  Q 59.95 74.61 47.23 77.49&#10;  Q 47.65 73.84 48.39 71.94&#10;  Q 57.46 48.42 83.34 48.43&#10;  Q 120.96 48.45 122.31 48.47&#10;  C 127.75 48.55 131.56 47.60 134.92 43.65&#10;  C 139.91 37.77 137.66 28.65 130.19 26.19&#10;  Q 127.94 25.45 123.34 25.43&#10;  Q 97.43 25.28 80.00 25.47&#10;  C 57.14 25.72 37.00 39.95 28.41 61.10&#10;  C 19.27 83.57 24.30 109.42 42.21 126.10&#10;  Q 35.13 120.83 30.27 113.31&#10;  Q 30.00 112.88 29.50 112.96&#10;  Q 19.03 114.68 8.88 118.58&#10;  Q 2.60 105.75 1.42 90.26&#10;  Q -0.84 60.63 16.05 36.54&#10;  C 30.82 15.47 54.83 2.15 80.75 2.21&#10;  Q 91.79 2.23 125.56 2.02&#10;  C 140.23 1.93 153.47 10.98 158.64 24.59&#10;  C 164.70 40.52 157.02 58.45 142.38 67.07&#10;  Q 134.94 71.46 127.06 71.52&#10;  Q 122.62 71.55 81.00 71.69&#10;  Q 76.29 71.71 72.73 75.02&#10;  Z"/>
<path fill="#142f39" d="&#10;  M 478.83 112.58&#10;  Q 464.81 110.08 451.71 115.99&#10;  C 462.57 98.44 464.50 77.12 455.86 58.41&#10;  C 448.39 42.25 433.85 30.43 416.20 26.81&#10;  Q 410.48 25.64 396.28 25.76&#10;  Q 384.65 25.85 315.52 26.23&#10;  Q 302.42 26.30 293.02 27.48&#10;  C 266.30 30.85 242.18 40.77 220.49 56.70&#10;  Q 212.52 62.56 209.24 65.49&#10;  Q 200.80 73.01 183.47 90.74&#10;  Q 172.67 86.85 160.72 86.99&#10;  C 154.72 87.06 150.90 90.97 145.42 92.58&#10;  Q 139.97 94.18 134.20 94.30&#10;  C 144.20 92.63 152.89 89.46 159.82 81.82&#10;  Q 167.12 73.78 186.92 54.92&#10;  Q 210.55 32.44 238.30 19.02&#10;  C 261.25 7.94 287.37 2.86 313.26 2.77&#10;  Q 373.02 2.56 406.80 2.41&#10;  C 430.35 2.30 453.21 15.37 467.38 33.63&#10;  C 484.78 56.05 489.28 85.91 478.83 112.58&#10;  Z"/>
<path fill="#142f39" d="&#10;  M 438.26 86.88&#10;  Q 427.75 79.62 414.99 79.12&#10;  Q 411.81 71.61 403.50 71.67&#10;  Q 379.00 71.84 312.50 72.24&#10;  C 286.01 72.40 263.27 81.36 242.57 97.33&#10;  C 228.78 107.97 219.42 120.37 204.06 134.44&#10;  Q 198.62 130.87 191.76 131.38&#10;  Q 176.88 132.48 161.97 134.64&#10;  Q 179.28 127.52 191.78 114.53&#10;  Q 195.73 110.41 212.52 93.29&#10;  C 236.86 68.46 269.26 51.21 304.49 49.19&#10;  Q 307.69 49.00 322.00 48.99&#10;  Q 362.76 48.97 403.52 48.56&#10;  Q 409.80 48.50 413.80 49.69&#10;  C 429.76 54.45 440.50 69.95 438.26 86.88&#10;  Z"/>
<path fill="#26454f" d="&#10;  M 72.73 75.02&#10;  C 64.67 84.21 71.61 95.20 82.78 94.99&#10;  Q 102.46 94.61 130.00 94.77&#10;  Q 131.67 94.78 134.20 94.30&#10;  Q 139.97 94.18 145.42 92.58&#10;  C 150.90 90.97 154.72 87.06 160.72 86.99&#10;  Q 172.67 86.85 183.47 90.74&#10;  Q 176.37 98.81 170.17 103.67&#10;  Q 152.60 117.44 129.75 117.59&#10;  Q 105.25 117.76 80.75 117.91&#10;  Q 69.75 117.98 60.11 110.63&#10;  Q 43.89 98.25 47.23 77.49&#10;  Q 59.95 74.61 72.73 75.02&#10;  Z"/>
<path fill="#26454f" d="&#10;  M 438.26 86.88&#10;  C 436.56 101.18 427.43 112.91 413.61 116.90&#10;  Q 408.61 118.35 398.24 118.37&#10;  Q 353.95 118.45 316.75 118.45&#10;  C 295.23 118.46 276.13 126.99 260.71 141.95&#10;  Q 235.83 166.10 231.46 201.27&#10;  Q 230.67 207.55 230.74 224.00&#10;  Q 230.80 238.29 230.81 252.80&#10;  Q 220.03 247.53 208.22 246.76&#10;  Q 208.18 230.82 208.27 214.94&#10;  Q 208.34 202.12 209.43 195.00&#10;  C 213.49 168.34 225.14 144.32 244.51 125.49&#10;  C 260.28 110.17 278.24 100.14 299.57 96.55&#10;  Q 306.67 95.35 319.57 95.38&#10;  Q 361.41 95.47 404.07 95.08&#10;  C 412.47 95.00 417.90 87.16 414.99 79.12&#10;  Q 427.75 79.62 438.26 86.88&#10;  Z"/>
<path fill="#2e4e58" d="&#10;  M 478.83 112.58&#10;  Q 472.19 130.63 457.59 143.84&#10;  Q 439.73 160.00 417.21 163.31&#10;  Q 411.36 164.17 397.24 164.21&#10;  Q 349.03 164.34 325.42 164.46&#10;  Q 312.03 164.53 307.20 165.99&#10;  C 292.87 170.31 282.22 184.15 278.57 198.10&#10;  Q 277.03 204.01 276.94 216.70&#10;  Q 276.72 249.52 276.96 282.58&#10;  Q 266.19 276.63 254.23 277.76&#10;  Q 253.92 251.72 254.08 225.74&#10;  Q 254.19 208.44 254.43 205.77&#10;  C 257.07 177.20 276.23 148.53 305.55 142.26&#10;  Q 310.43 141.22 325.50 141.13&#10;  Q 362.13 140.91 398.76 140.90&#10;  Q 410.99 140.89 417.17 139.50&#10;  Q 438.44 134.69 451.71 115.99&#10;  Q 464.81 110.08 478.83 112.58&#10;  Z"/>
<path fill="#2e4e58" d="&#10;  M 42.21 126.10&#10;  C 53.44 135.26 66.11 140.76 80.60 140.77&#10;  Q 103.76 140.79 126.91 140.58&#10;  C 139.47 140.47 150.23 138.93 161.97 134.64&#10;  Q 176.88 132.48 191.76 131.38&#10;  Q 198.62 130.87 204.06 134.44&#10;  Q 172.70 163.90 129.26 163.64&#10;  Q 118.41 163.57 89.75 163.96&#10;  Q 75.35 164.15 69.79 163.46&#10;  C 43.33 160.16 19.99 142.98 8.88 118.58&#10;  Q 19.03 114.68 29.50 112.96&#10;  Q 30.00 112.88 30.27 113.31&#10;  Q 35.13 120.83 42.21 126.10&#10;  Z"/>
<rect fill="#2e4e58" x="-11.55" y="-26.66" transform="translate(172.88,222.97) rotate(0.1)" width="23.10" height="53.32" rx="11.05"/>
<path fill="#2e4e58" d="&#10;  M 323.07 236.06&#10;  L 323.14 236.96&#10;  L 323.13 279.36&#10;  C 316.02 275.14 308.09 275.60 300.04 275.30&#10;  Q 300.01 255.52 300.14 235.75&#10;  C 300.18 229.55 300.76 225.48 305.90 222.31&#10;  A 0.34 0.34 0.0 0 0 305.91 221.75&#10;  Q 299.40 217.11 299.55 209.07&#10;  C 299.76 197.57 314.15 191.74 321.88 200.99&#10;  C 327.01 207.13 325.65 215.06 320.01 220.62&#10;  C 319.33 221.28 318.66 221.31 317.89 221.68&#10;  Q 317.43 221.90 317.83 222.39&#10;  C 318.85 223.64 321.15 225.62 321.96 227.86&#10;  Q 323.35 231.71 323.07 236.06&#10;  Z"/>
<path fill="#142f39" d="&#10;  M 323.14 236.96&#10;  L 323.07 236.06&#10;  L 323.14 236.96&#10;  Z"/>
<path fill="#41626b" d="&#10;  M 230.81 252.80&#10;  L 230.70 324.95&#10;  Q 220.20 319.97 208.74 317.84&#10;  Q 208.24 317.75 208.23 318.25&#10;  L 208.10 325.04&#10;  L 208.22 246.76&#10;  Q 220.03 247.53 230.81 252.80&#10;  Z"/>
<path fill="#41626b" d="&#10;  M 184.53 311.30&#10;  L 162.27 312.70&#10;  Q 161.77 312.73 161.72 312.23&#10;  L 161.57 310.78&#10;  Q 161.66 290.57 161.45 270.31&#10;  Q 161.37 263.44 162.70 260.90&#10;  Q 165.14 256.22 170.87 254.51&#10;  Q 175.33 253.18 179.91 256.89&#10;  Q 184.33 260.47 184.38 266.25&#10;  Q 184.56 288.77 184.53 311.30&#10;  Z"/>
<path fill="#4e6f79" d="&#10;  M 276.96 282.58&#10;  Q 276.93 309.78 276.93 337.20&#10;  Q 276.93 349.74 275.61 354.65&#10;  Q 273.15 363.73 266.39 370.17&#10;  C 252.25 383.65 231.98 382.75 218.04 369.46&#10;  Q 208.30 360.19 208.19 345.74&#10;  Q 208.11 335.40 208.10 325.04&#10;  L 208.23 318.25&#10;  Q 208.24 317.75 208.74 317.84&#10;  Q 220.20 319.97 230.70 324.95&#10;  Q 230.72 334.73 230.59 344.50&#10;  C 230.38 361.33 254.30 361.45 254.14 343.75&#10;  Q 253.90 316.73 254.23 277.76&#10;  Q 266.19 276.63 276.96 282.58&#10;  Z"/>
<path fill="#41626b" d="&#10;  M 323.13 279.36&#10;  L 323.02 337.31&#10;  Q 312.68 328.81 300.06 324.37&#10;  L 300.04 275.30&#10;  C 308.09 275.60 316.02 275.14 323.13 279.36&#10;  Z"/>
<path fill="#597a83" d="&#10;  M 184.53 311.30&#10;  Q 184.55 323.89 184.55 336.49&#10;  Q 184.54 350.37 185.82 356.41&#10;  C 193.21 391.42 228.51 411.04 261.82 399.27&#10;  C 278.66 393.31 291.07 380.72 296.72 363.89&#10;  Q 299.38 355.95 299.83 348.25&#10;  Q 300.28 340.49 300.06 324.37&#10;  Q 312.68 328.81 323.02 337.31&#10;  C 324.67 366.70 313.52 393.09 289.78 410.77&#10;  C 274.43 422.21 255.76 427.21 236.99 425.91&#10;  C 200.11 423.35 168.89 395.12 162.77 358.69&#10;  Q 161.69 352.31 161.63 338.74&#10;  Q 161.57 324.77 161.57 310.78&#10;  L 161.72 312.23&#10;  Q 161.77 312.73 162.27 312.70&#10;  L 184.53 311.30&#10;  Z"/>
</svg>