<?xml version="1.0" encoding="utf-8"?>
<svg xmlns="http://www.w3.org/2000/svg" viewBox="0 0 240 240" classname="sidebar__logo">
  <path classname="fill__color" d="M 23.982 82.389 C 63.982 22.389 183.982 42.389 223.982 82.389 C 210.648 109.056 187.315 115.722 153.982 102.389 C 120.648 89.056 77.315 92.389 23.982 112.389 L 23.982 82.389 Z"/>
  
  <path classname="fill__color" d="M 140.308 103.141 C 123.979 145.602 81.97 159.105 138.63 195.222 C 163.641 211.165 132.011 241.299 105.399 236.593 C 92.066 219.926 57.999 188.954 61.332 155.62 C 61.646 125.64 101.96 69.424 140.308 103.141 Z"/>
  <path d="M 21.592 81.194 C 46.843 40.14 187.55 38.444 221.592 81.194 C 208.259 107.861 184.925 114.527 151.592 101.194 C 118.259 87.861 74.925 91.194 21.592 111.194 M 142.297 103.935 C 97.889 180.634 99.312 150.256 131.86 199.601 C 146.544 221.862 133.259 239.527 106.592 236.194 C 93.259 219.527 58.794 189.749 62.127 156.415 C 62.127 126.415 118.544 74.169 105.267 94.379" stroke="black" stroke-width="5" fill="none"/>
</svg>